<svg xmlns="http://www.w3.org/2000/svg" xmlns:xlink="http://www.w3.org/1999/xlink" version="1.1" x="0px" y="0px" viewBox="0 0 128 160" style="enable-background:new 0 0 128 128;" xml:space="preserve"><path d="M68.4985962,71.9300537c0-1.5554199-0.2919312-2.5563354-0.499939-2.8904419  c-0.2080078,0.3341064-0.5,1.335022-0.5,2.8904419c0,1.5553589,0.2919922,2.5563354,0.5,2.8904419  C68.206665,74.4863892,68.4985962,73.4854126,68.4985962,71.9300537z" style="fill: #f39c12;"/><path d="M22.239563,18.5155029c-0.0299683,0.0495605-0.0499878,0.1090698-0.0599976,0.1586304  c-0.0700073,0.1685791-0.0800171,0.3570557-0.039978,0.5454712l0.6099854,2.7272339  c0.1099243,0.4562378,0.5199585,0.7736206,0.9799194,0.7736206c0.0599976,0,0.1300049-0.0099487,0.1900024-0.0198975  l15.7697144-3.034668c0.3099976-0.0595093,0.5700073-0.2578735,0.710022-0.5256348  c0.1300049-0.2776489,0.1399536-0.6049805,0-0.8826294l-1.4100342-2.8561401  c-0.1499634-0.3669434-0.4799805-0.585144-0.8399658-0.6148682c-0.4199829-0.3571167-0.6799927-0.8727417-0.6999512-1.4380493  c0.7999268-0.5355225,1.4099121-1.2991333,1.749939-2.2016602c0.4599609-1.1999512,0.3800049-2.5189819-0.2000122-3.6396484  c-0.5499878-1.0412598-1.4799194-1.8148804-2.6199341-2.1619263c-1.1799927-0.3669434-2.4399414-0.2479248-3.539917,0.3272705  c-0.0900269,0.0495605-0.1700439,0.0892334-0.25,0.1387939C30.859375,4.3535767,28.319458,4.065979,26.2194214,5.1767578  c-0.9899292,0.515625-1.7999268,1.2991333-2.3499146,2.2611084c-0.9699707-0.1487427-1.9799194,0.0098877-2.8799438,0.4859009  c-2.2399292,1.1702881-3.1399536,3.9074097-1.9799194,6.0991821c0.2399902,0.4562378,0.5499878,0.8528442,0.8399048,1.1107178  c0.710022,0.6942139,1.6199951,1.1206665,2.6100464,1.2198486c0.0299683,0,0.0499878,0.0098877,0.0799561,0.0098877  c0.1100464,0.2479248,0.1700439,0.5256348,0.1700439,0.793396c0,0.4165649-0.1300049,0.8231201-0.3600464,1.1504517  C22.2995605,18.3766479,22.2595825,18.446106,22.239563,18.5155029z M25.1795044,15.857605  c0.3599854-0.1983032,0.6999512-0.4363403,1.0099487-0.723938c1.6099854,0.8032837,3.5899658,0.7834473,5.249939-0.0892334  c0.6099243-0.3272705,1.1499634-0.7437744,1.6099243-1.2495728c0.7800293,0.3371582,1.6400146,0.4364014,2.4899292,0.2975464  c0.0800171,0.4065552,0.2200317,0.793335,0.4299927,1.1503296l-11.2797241,2.310791  c0.0100098-0.1289673,0.0200195-0.2578735,0.0200195-0.3967285c0-0.3471069-0.0500488-0.6941528-0.1400146-1.0313721  C24.779541,16.0559692,24.9794922,15.9667358,25.1795044,15.857605z" style="fill: #f39c12;"/><path d="M31.9993286,32.2608643c4.9623413,0,8.9998169-4.0042114,8.9998169-8.9255371  c0-0.6594238-0.0748901-1.3103638-0.2174072-1.944458c-0.2258301,0.105835-0.4628906,0.1906738-0.7145996,0.2390137  l-15.7697144,3.034668l-0.0253906,0.0048828L24.24646,24.673645c-0.1211548,0.0200806-0.3065796,0.046814-0.5169678,0.046814  c-0.2132568,0-0.4194946-0.0291138-0.6213379-0.0716553C23.7520142,28.947998,27.4880981,32.2608643,31.9993286,32.2608643z" style="fill: #f39c12;"/><path d="M126.6799927,108.1300049H127c0.2999878,0,0.5900269-0.1400146,0.7800293-0.3800049  c0.1899414-0.2399902,0.2599487-0.5499878,0.1899414-0.8400269l-5.4199829-22.8099976  c-0.0999756-0.4500122-0.5100098-0.7700195-0.9699707-0.7700195H118v-0.9899902c0-2.4599609-2.0200195-4.4599609-4.5-4.4599609  h-2.5499878C110.4400024,72.3299561,105.7299805,67.9599609,100,67.9599609s-10.4400024,4.3699951-10.9500122,9.9200439h-6.0700073  C82.9799805,77.8499756,83,77.8200073,83,77.7799683v-3.8899536c2.7999878-0.25,5-2.5900269,5-5.4300537v-1.4899902  c0-0.5499878-0.4500122-0.9899902-1-0.9899902H77c-0.5499878,0-1,0.4400024-1,0.9899902v1.4899902  c0,2.8400269,2.2000122,5.1800537,5,5.4300537v3.8899536c0,0.0400391,0.0100098,0.0700073,0.0200195,0.1000366h-8.1600342  C72.9400024,77.6199951,73,77.3599854,73,77.0700073v-8.8000488C73,67.0299683,72.4699707,65.8699951,71.5,65  c-0.1900024-0.1700439-0.3800049-0.3200073-0.5900269-0.460022l-0.4699707-5.5800171  c-0.039978-0.5199585-0.4799805-0.9099731-1-0.9099731h-2.8800049c-0.5200195,0-0.960022,0.3900146-1,0.9099731  l-0.4699707,5.5800171C63.789978,65.3999634,63,66.7799683,63,68.2699585v8.8000488  c0,0.289978,0.0599976,0.5499878,0.1400146,0.8099976H62.5c-2.4799805,0-4.5,2-4.5,4.4599609v0.9899902h-1.7700195  l-4.3399658-21.5099487c-0.0900269-0.4700317-0.5-0.8000488-0.9800415-0.8000488h-2.9599609  C47.960022,60.8599854,48,60.7099609,48,60.5499878c0-0.7000122-0.1500244-1.3599854-0.4500122-1.9400024  c-0.7299805-1.5100098-2.2799683-2.4899902-3.8499756-2.4899902h-0.0100098l-10.5-0.9500122l2.5900269-10.3900146  c0.5-2.1099854,0.1299438-4.2799683-1.0400391-6.1300049c-1.2299805-1.9400024-3.1699829-3.2699585-5.4599609-3.7699585  l-2.0200195-0.4299927c-4.6099854-1-9.2299805,1.789978-10.2700195,6.2299805  c-0.2700195,1.1400146-6.5299683,27.8699951-6.9500122,30.039978c-0.0099487,0.0599976-0.0199585,0.0400391-0.0199585,0.1000366  C10.0200195,70.8599854,10,70.8999634,10,70.9400024v0.0999756c0,0.1400146,0,0.289978,0.0100098,0.4400024c0,0,0,0,0,0.0100098  C9.5700073,72.9299927,8.5,77.5,4.9500122,93.0799561C3.0999756,101.2000122,0,114.8599854,0,115.25v5.2699585  c0,0.5500488,0.4500122,1,1,1h13.7199707c1.9800415,0,3.6000366-1.539978,3.6000366-3.4299927  c0-0.0899658-0.0100098-0.1799927-0.039978-0.2699585c-0.4200439-1.4200439-1.6000366-4.7300415-3.5600586-4.7300415H12.289978  c1.1300049-5.0499878,5.4700317-24.5299683,7.0500488-31.5999756l9.9199829,13.5999756l0.1199951,25.4400024  c0,0.5499878,0.4500122,0.9899902,1,0.9899902h13.1300049c1.9199829,0,3.4899902-1.5599976,3.4899902-3.4599609  c0-0.0900269-0.0100098-0.1799927-0.039978-0.2600098c-0.4900513-1.7999878-1.5900269-4.8200073-3.4500122-4.8200073H40.960022  c-0.1600342-4.0800171-0.7900391-19.7999878-0.7900391-19.8499756c-0.0499878-0.4700317-0.1300049-1.3500366-11.8899536-17.8099976  c0.1999512-0.3600464,0.3699951-0.7300415,0.4899902-1.1000366c0.0999756-0.2600098,0.1900024-0.5199585,0.2399902-0.7799683  l0.7700195-3.2900391l0.3499756-1.4699707l0.3300171-1.4000244c0.0099487-0.0299683,0.0099487-0.0499878,0.0099487-0.0700073  c0-0.0199585,0.0100098-0.039978,0.0100098-0.0599976l0.8600464,0.1900024l8.3199463,1.7800293  c0.3200073,0.0700073,0.6500244,0.1099854,0.9700317,0.1099854c1.1500244,0,2.2399902-0.4299927,3.0700073-1.1799927  c0.6900024-0.8499756,1.1499634-1.9299927,1.2699585-3.1400146c0.3200073-3.1199951-1.6899414-5.9899902-4.4899902-6.3800049  l-11.6306763-1.7166138l0.3106689-1.3933716l2.4300537-11.1099854c0.2599487-1.1799927,0.0299683-2.4000244-0.6300049-3.4199829  c-0.6600342-1.0200195-1.6799927-1.7200317-2.8300171-1.9700317l-0.1600342-0.039978  C25.5,38.3599854,23.0599976,39.9099731,22.5200195,42.3599854c-1.3099976,6-2.1700439,9.9799805-2.75,12.6199951  c-0.1700439,0.7600098-0.3099976,1.4100342-0.4299927,1.9700317c-0.4700317,2.1799927-0.6200562,2.9099731-0.6800537,3.1699829  c-0.039978,0.2399902-0.0699463,0.4699707-0.0699463,0.7099609c0,0.0100098,0,0.0100098,0,0.0200195v0.0700073  c0,2.0800171,1.4899902,3.9899902,3.5999756,4.4400024l6.3699951,1.3699951  c-0.0200195,0.039978-0.039978,0.0800171-0.0499878,0.1199951l-0.0200195,0.0800171l-0.3499756,1.4699707l-0.3400269,1.4700317  L27.0599976,73c-0.039978,0.1799927-0.0900269,0.3499756-0.1699829,0.5499878  c-0.1300049,0.3800049-0.2999878,0.7299805-0.5100098,1.0800171c0,0-0.0100098,0-0.0200195,0.0100098  c-0.2600098,0.2599487-3.6499634,2.1799927-5.5100098,3.2199707c-0.1699829,0-0.3299561,0.0200195-0.5,0.0100098  c-0.2199707-0.0100098-0.8099976-0.0900269-1.2199707-0.1600342c-0.0200195-0.0099487-0.039978-0.0099487-0.0700073-0.0099487  L18.75,77.6300049c-0.9799805-0.4100342-5.1699829-2.9500122-6.4500122-4.7000122  C12.1699829,72.5,12.0599976,72.0599976,12.0300293,71.5999756c0-0.0200195-0.0100098-0.039978-0.0100098-0.0599976  c0-0.0100098,0-0.0100098,0-0.0100098v-0.0199585c0-0.0100098,0-0.0100098,0-0.0100098s0,0,0-0.0100098  c0-0.0499878,0-0.0999756-0.0100098-0.1500244C12,71.2699585,12,71.2000122,12,71.1199951  c0-0.0300293,0.0100098-0.0499878,0.0100098-0.0599976v-0.0100098C12.5,68.5899658,18.8699951,41.4099731,18.9299927,41.1300049  c0.7999878-3.3900146,4.3400269-5.5200195,7.9100342-4.75l2.0199585,0.4400024  c1.7600098,0.3800049,3.2399902,1.4099731,4.1799927,2.8899536c0.8900146,1.3900146,1.1700439,3.0300293,0.8000488,4.6000366  l-2.8300171,11.3699951l9.6799927,1.3599854c3.2299805,0.4500122,5.6400146,3.4100342,5.789978,6.8400269  C46.7700195,63.6300049,47.0300293,63.3299561,47.25,63h2.8400269l4.1099854,20.3699951  c-0.3699951,0.0899658-0.6699829,0.3599854-0.75,0.7299805l-2.3900146,10.0499878H81c0.5499878,0,1,0.4400024,1,0.9900513  c0,0.5499878-0.4500122,0.9899902-1,0.9899902H50.5900269l-0.4700317,1.9799805H83c0.5499878,0,1,0.4500122,1,1  c0,0.539978-0.4500122,0.9899902-1,0.9899902H49.6400146l-0.4700317,1.9799805H81c0.5499878,0,1,0.4400024,1,0.9900513  c0,0.5499878-0.4500122,0.9899902-1,0.9899902H48.7000122l-0.6699829,2.8499756  c-0.0700073,0.2900391,0,0.6000366,0.1799927,0.8400269c0.1900024,0.2399902,0.4799805,0.3800049,0.789978,0.3800049h0.3200073  l-1.289978,4.6999512c-0.0800171,0.3000488-0.0100098,0.6100464,0.1799927,0.8600464  c0.1900024,0.2399902,0.4799805,0.3899536,0.789978,0.3899536h5v2.8300171c-0.6199951,0.710022-1,1.6199951-1,2.6199951  C53,121.7199707,54.789978,123.5,57,123.5s4-1.7800293,4-3.9700317c0-1-0.3800049-1.9099731-1-2.6199951v-2.8300171h55v2.8300171  c-0.4099731,0.460022-0.7199707,1.0300293-0.8800049,1.6600342c-0.5299683,2.1199951,0.7700195,4.2799683,2.9100342,4.8099976  C117.3499756,123.4599609,117.6799927,123.5,118,123.5c1.789978,0,3.4299927-1.2000122,3.8800049-3.0100098  c0.3300171-1.2999878-0.039978-2.6300049-0.8800049-3.5800171v-2.8300171h6c0.3099976,0,0.5999756-0.1499634,0.789978-0.3899536  c0.1900024-0.25,0.2600098-0.5599976,0.1799927-0.8600464L126.6799927,108.1300049z M98.6599731,73.3999634  c0.5599976,0,1,0.4500122,1,0.9900513c0,0.5499878-0.4400024,1-1,1c-1.4799805,0-2.7099609,1.0799561-2.9499512,2.4899902h-2  C93.960022,75.3699951,96.0700073,73.3999634,98.6599731,73.3999634z M68,67.9599609c1.460022,0,1.5,3.5599976,1.5,3.9700317  c0,0.4099731-0.039978,3.9699707-1.5,3.9699707s-1.5-3.5599976-1.5-3.9699707C66.5,71.5199585,66.539978,67.9599609,68,67.9599609z   M60,83.3299561v-0.9899902c0-1.3599854,1.1199951-2.4799805,2.5-2.4799805h51c1.3800049,0,2.5,1.1199951,2.5,2.4799805v0.9899902  H60z M57,121.5199585c-1.0999756,0-2-0.8999634-2-1.9899902c0-1.0899658,0.9000244-1.9799805,2-1.9799805  c0.4899902,0,0.9400024,0.1799927,1.289978,0.4699707C58.7199707,118.3800049,59,118.9299927,59,119.5299683  C59,120.6199951,58.0999756,121.5199585,57,121.5199585z M119.9400024,120.0100098  c-0.2700195,1.0699463-1.3599854,1.7099609-2.4199829,1.4499512c-1.0700073-0.2699585-1.7300415-1.3499756-1.460022-2.3999634  c0.2299805-0.9100342,1.039978-1.5100098,1.9400024-1.5100098c0.1599731,0,0.3200073,0.0200195,0.4799805,0.0599976  c0.3400269,0.0900269,0.6400146,0.2600098,0.8800049,0.4799805  C119.8800049,118.5599976,120.1199951,119.2999878,119.9400024,120.0100098z M50.3099976,112.0999756l1.0800171-3.9699707  h73.2099609l1.0900269,3.9699707H50.3099976z" style="fill: #f39c12;"/></svg>