<svg xmlns="http://www.w3.org/2000/svg" xmlns:xlink="http://www.w3.org/1999/xlink" version="1.1" x="0px" y="0px" viewBox="0 0 512 640" style="enable-background:new 0 0 512 512;" xml:space="preserve"><g><g><path fill="#f39c12" d="M390.658,244.517h21.509c-0.793-27.17-8.027-52.754-20.233-75.278l-18.596,10.742    c-0.787,0.455-1.647,0.672-2.496,0.672c-1.727,0-3.408-0.896-4.334-2.5c-1.382-2.391-0.564-5.449,1.828-6.83l18.57-10.728    c-13.868-22.336-32.792-41.225-55.167-55.065l-10.712,18.512c-0.926,1.602-2.605,2.497-4.332,2.497    c-0.85,0-1.711-0.217-2.499-0.674c-2.391-1.383-3.207-4.441-1.823-6.831l10.715-18.517    c-22.553-12.175-48.165-19.392-75.365-20.183v21.416c0,2.762-2.239,5-5,5c-2.761,0-5-2.238-5-5V80.334    c-27.193,0.791-52.801,8.006-75.349,20.179l10.718,18.52c1.383,2.391,0.567,5.449-1.823,6.832    c-0.788,0.457-1.65,0.674-2.499,0.674c-1.727,0-3.405-0.895-4.333-2.496l-10.716-18.516    c-22.375,13.841-41.298,32.731-55.166,55.067l18.557,10.729c2.39,1.382,3.208,4.44,1.826,6.831    c-0.927,1.603-2.606,2.498-4.334,2.498c-0.849,0-1.709-0.217-2.498-0.673l-18.578-10.741    c-12.204,22.524-19.438,48.108-20.232,75.278h21.511c2.761,0,5,2.238,5,5c0,2.762-2.239,5-5,5H73.295    c0.793,27.173,8.022,52.761,20.22,75.291l18.595-10.722c2.392-1.379,5.45-0.557,6.829,1.835c1.379,2.392,0.558,5.449-1.834,6.829    L98.54,338.455c13.866,22.353,32.79,41.256,55.167,55.105l10.728-18.567c1.382-2.392,4.439-3.209,6.831-1.828    c2.391,1.381,3.21,4.44,1.828,6.83l-10.736,18.582c22.552,12.183,48.165,19.403,75.365,20.195v-21.453c0-2.762,2.239-5,5-5    c2.761,0,5,2.238,5,5v21.452c12.89-0.376,25.637-2.198,38.018-5.448c-0.061-0.173-0.112-0.349-0.172-0.522    c-0.373-1.075-0.733-2.156-1.072-3.247c-0.143-0.458-0.275-0.919-0.411-1.379c-0.221-0.746-0.433-1.495-0.637-2.248    c-0.202-0.742-0.395-1.487-0.58-2.234c-0.178-0.716-0.349-1.435-0.512-2.156c-0.131-0.582-0.261-1.163-0.381-1.748    c-0.204-0.98-0.394-1.967-0.569-2.957c-0.097-0.546-0.185-1.094-0.273-1.642c-0.135-0.835-0.259-1.674-0.374-2.515    c-0.076-0.563-0.149-1.125-0.217-1.688c-0.117-0.976-0.219-1.955-0.31-2.938c-0.035-0.385-0.072-0.769-0.102-1.153    c-0.027-0.331-0.051-0.663-0.075-0.995c-0.003-0.053-0.006-0.105-0.01-0.157c-0.053-0.76-0.101-1.521-0.137-2.284    c-0.005-0.096-0.008-0.191-0.012-0.287c-0.012-0.274-0.02-0.551-0.03-0.826c-0.018-0.467-0.039-0.932-0.05-1.4    c-0.021-0.861-0.033-1.724-0.033-2.587c0-58.137,47.349-105.435,105.549-105.435c0.998,0,1.993,0.017,2.984,0.045    c0.228,0.006,0.456,0.018,0.684,0.025c0.09,0.003,0.179,0.007,0.268,0.011c0.246,0.009,0.492,0.017,0.738,0.028    c0.459,0.02,0.916,0.042,1.373,0.067c0.197,0.012,0.395,0.025,0.593,0.038c0.645,0.04,1.29,0.082,1.933,0.135    c0.121,0.01,0.241,0.022,0.362,0.032c0.109,0.009,0.218,0.02,0.327,0.028c0.084,0.008,0.167,0.015,0.251,0.022    c1.162,0.104,2.321,0.224,3.473,0.365c0.008,0.001,0.016,0.002,0.023,0.003c1.392,0.172,2.773,0.374,4.148,0.6    c0.081,0.013,0.162,0.026,0.242,0.04c2.516,0.418,5.002,0.926,7.454,1.518c1.109-7.072,1.767-14.224,1.979-21.364h-21.507    c-2.762,0-5-2.238-5-5C385.658,246.755,387.897,244.517,390.658,244.517z M319.325,293.684c-0.925,1.606-2.607,2.505-4.337,2.505    c-0.847,0-1.705-0.216-2.491-0.669l-59.102-34.049c-2.839,2.542-6.573,4.102-10.673,4.102c-8.837,0-16.027-7.202-16.027-16.056    c0-7.087,4.633-13.105,11.027-15.21v-98.491c0-2.762,2.239-5,5-5c2.761,0,5,2.238,5,5v98.489    c6.404,2.104,11.044,8.123,11.044,15.212c0,1.135-0.122,2.24-0.347,3.309l59.069,34.029    C319.882,288.234,320.704,291.292,319.325,293.684z"/><path fill="#f39c12" d="M242.723,243.498c-3.324,0-6.027,2.7-6.027,6.02c0,3.339,2.704,6.056,6.027,6.056    c3.333,0,6.044-2.717,6.044-6.056C248.767,246.198,246.056,243.498,242.723,243.498z"/><path fill="#f39c12" d="M297.825,437.274c-0.317-0.471-0.627-0.945-0.936-1.42c-0.202-0.31-0.406-0.618-0.605-0.931    c-0.087-0.137-0.172-0.275-0.259-0.413c-2.4-3.798-4.563-7.759-6.471-11.861c-15.206,4.112-30.937,6.202-46.832,6.202    c-32.421,0-62.86-8.633-89.14-23.716c-0.208-0.085-0.415-0.185-0.615-0.301c-0.165-0.095-0.303-0.216-0.452-0.325    c-26.812-15.636-49.22-38.011-64.884-64.788c-0.13-0.17-0.253-0.35-0.362-0.54c-0.055-0.096-0.085-0.198-0.133-0.296    c-15.21-26.326-23.92-56.85-23.92-89.368c0-32.457,8.683-62.927,23.851-89.215c0.069-0.152,0.12-0.309,0.206-0.456    c0.106-0.184,0.238-0.339,0.363-0.504c15.625-26.697,37.961-49.016,64.683-64.638c0.204-0.167,0.411-0.331,0.646-0.467    c0.21-0.122,0.431-0.206,0.65-0.295c26.273-15.065,56.7-23.688,89.108-23.688c32.396,0,62.814,8.615,89.081,23.668    c0.235,0.092,0.47,0.185,0.694,0.314c0.249,0.145,0.471,0.316,0.686,0.494c26.694,15.615,49.009,37.914,64.626,64.583    c0.133,0.173,0.271,0.339,0.384,0.533c0.09,0.155,0.144,0.319,0.216,0.48c15.16,26.282,23.838,56.743,23.838,89.189    c0,9.747-0.805,19.549-2.391,29.201c0.987,0.343,1.967,0.7,2.941,1.07c0.278,0.107,0.558,0.21,0.836,0.318    c1.044,0.407,2.081,0.831,3.108,1.27c0.444,0.19,0.885,0.385,1.326,0.58c0.661,0.294,1.318,0.595,1.972,0.901    c0.87,0.407,1.733,0.828,2.593,1.258c0.36,0.182,0.721,0.362,1.078,0.548c5.523,2.847,10.819,6.173,15.804,9.987    c3.208-14.748,4.831-29.895,4.831-45.135c0-116.536-94.934-211.345-211.623-211.345S31.099,132.981,31.099,249.517    c0,116.577,94.934,211.42,211.624,211.42c22.523,0,44.58-3.491,65.684-10.387c-3.884-4.139-7.406-8.568-10.551-13.233    C297.846,437.303,297.836,437.289,297.825,437.274z"/><polygon points="420.156,389.15 420.156,361.717 401.777,389.15   " style="fill: #f39c12;"/><path fill="#f39c12" d="M436.862,298.015c-0.036-0.023-0.072-0.046-0.108-0.069c-1.103-0.706-2.224-1.386-3.357-2.047    c-0.282-0.165-0.565-0.33-0.849-0.492c-0.775-0.441-1.559-0.871-2.348-1.291c-0.624-0.332-1.25-0.66-1.881-0.978    c-0.468-0.236-0.937-0.472-1.409-0.7c-0.94-0.454-1.886-0.893-2.839-1.315c-0.338-0.15-0.677-0.299-1.018-0.445    c-1.076-0.462-2.159-0.907-3.252-1.329c-0.211-0.082-0.424-0.162-0.636-0.242c-1.211-0.458-2.429-0.897-3.657-1.305    c-0.076-0.025-0.152-0.049-0.229-0.074c-0.87-0.287-1.751-0.544-2.63-0.806c-0.991-0.296-1.987-0.572-2.985-0.835    c-0.229-0.061-0.457-0.118-0.686-0.177c-0.957-0.244-1.915-0.478-2.878-0.693c-0.218-0.049-0.437-0.091-0.655-0.138    c-1.638-0.353-3.283-0.656-4.935-0.923c-0.498-0.08-0.993-0.17-1.493-0.242c-0.634-0.092-1.271-0.165-1.906-0.244    c-0.718-0.089-1.434-0.176-2.155-0.248c-0.566-0.058-1.133-0.108-1.7-0.155c-0.85-0.07-1.7-0.129-2.554-0.177    c-0.461-0.025-0.922-0.056-1.383-0.075c-1.326-0.056-2.655-0.092-3.987-0.092c-52.686,0-95.549,42.812-95.549,95.435    c0,0.831,0.011,1.662,0.033,2.491c0.001,0.04,0.003,0.079,0.004,0.119c0.483,17.488,5.805,34.434,15.148,48.98    c0.018,0.027,0.037,0.055,0.055,0.082c0.375,0.584,0.76,1.163,1.148,1.738c17.194,25.36,46.262,42.06,79.16,42.06    c52.696,0,95.568-42.828,95.568-95.471C480.901,344.669,463.33,315.003,436.862,298.015z M379.651,404.514v14.204h-54.007    c0.583-5.398,2.346-10.531,5.251-15.327c2.925-4.874,8.701-11.319,17.326-19.301c6.939-6.484,11.177-10.868,12.753-13.154    c2.1-3.185,3.187-6.332,3.187-9.481c0-3.41-0.938-6.033-2.775-7.906c-1.837-1.837-4.388-2.773-7.649-2.773    c-3.188,0-5.739,0.975-7.651,2.922c-1.875,1.949-2.963,5.172-3.264,9.632l-15.376-1.535c0.919-8.47,3.787-14.578,8.607-18.252    c4.819-3.672,10.858-5.545,18.097-5.545c7.913,0,14.158,2.173,18.677,6.445c4.539,4.271,6.826,9.594,6.826,15.964    c0,3.635-0.676,7.084-1.95,10.382c-1.294,3.26-3.357,6.67-6.188,10.267c-1.837,2.398-5.232,5.809-10.089,10.305    c-4.875,4.423-7.987,7.384-9.264,8.882c-1.311,1.462-2.361,2.886-3.169,4.272H379.651z M445.096,402.603h-10.015v16.115h-14.926    v-16.115h-32.78v-13.378l34.768-51.116h12.938v51.041h10.015V402.603z"/></g></g></svg>