<?xml version="1.0" standalone="no"?>
<!DOCTYPE svg PUBLIC "-//W3C//DTD SVG 20010904//EN"
 "http://www.w3.org/TR/2001/REC-SVG-20010904/DTD/svg10.dtd">
<svg version="1.0" xmlns="http://www.w3.org/2000/svg"
 width="600.000000pt" height="601.000000pt" viewBox="0 0 600.000000 601.000000"
 preserveAspectRatio="xMidYMid meet">
<metadata>
Created by potrace 1.15, written by Peter Selinger 2001-2017
</metadata>
<g transform="translate(0.000000,601.000000) scale(0.100000,-0.100000)"
fill="#fff" stroke="none">
<path d="M2842 5470 c-512 -42 -1001 -293 -1324 -680 -225 -269 -372 -582
-434 -925 -24 -137 -30 -433 -10 -582 50 -380 205 -724 463 -1030 510 -605
1460 -1711 1468 -1709 12 3 1463 1700 1547 1809 310 404 450 925 383 1429
-105 794 -674 1438 -1443 1633 -202 51 -446 71 -650 55z m303 -111 c235 -20
435 -74 645 -175 524 -251 896 -734 1010 -1310 41 -205 38 -497 -6 -714 -54
-261 -203 -576 -368 -775 -64 -77 -1386 -1628 -1406 -1648 -16 -17 -48 18
-711 795 -382 447 -718 843 -747 879 -170 217 -296 494 -352 775 -28 136 -38
414 -21 563 91 782 683 1422 1461 1581 179 37 318 45 495 29z"/>
<path d="M2830 4930 c-589 -82 -1045 -483 -1191 -1047 -148 -577 89 -1193 587
-1522 251 -166 514 -238 829 -228 376 13 687 147 950 411 292 293 435 684 404
1100 -47 631 -512 1150 -1140 1271 -100 19 -347 28 -439 15z m350 -115 c52 -7
136 -26 185 -40 113 -32 308 -128 400 -197 200 -150 369 -374 449 -598 206
-572 -1 -1196 -507 -1527 -390 -257 -891 -282 -1297 -67 -347 185 -590 510
-671 897 -25 118 -29 336 -10 452 43 255 163 499 338 685 285 303 715 456
1113 395z"/>
<path d="M2767 4182 l-107 -107 270 -270 270 -270 -272 -272 -273 -273 110
-110 c60 -60 114 -110 120 -110 5 0 181 171 390 380 l380 380 -380 380 c-209
209 -385 380 -390 380 -6 0 -59 -48 -118 -108z"/>
</g>
</svg>
