<svg xmlns="http://www.w3.org/2000/svg" xmlns:xlink="http://www.w3.org/1999/xlink" version="1.1" x="0px" y="0px" viewBox="0 0 512 640" enable-background="new 0 0 512 512" xml:space="preserve"><g><path d="M256,0C139.167,0,44.467,94.708,44.467,211.533C44.467,372.184,256,512,256,512s211.533-139.816,211.533-300.467   C467.533,94.708,372.833,0,256,0z M256,375.941c-90.8,0-164.4-73.6-164.4-164.408c0-90.8,73.601-164.408,164.4-164.408   s164.417,73.608,164.417,164.408C420.417,302.342,346.8,375.941,256,375.941z" style="fill: #f39c12;"/><path d="M272.191,117.8l-73.592-0.133v196.267h39.25v-49.217h34.342c40.575,0,73.467-32.883,73.467-73.45   C345.658,150.684,312.767,117.8,272.191,117.8z M296.384,215.45c-6.459,6.467-15.051,10.017-24.192,10.017H237.85v-68.483   l34.275,0.066h0.033h0.033c9.142,0,17.733,3.55,24.192,10.017c6.466,6.467,10.024,15.05,10.024,24.2   C306.408,200.4,302.85,208.983,296.384,215.45z" style="fill: #f39c12;"/></g></svg>