<?xml version="1.0" standalone="no"?>
<!DOCTYPE svg PUBLIC "-//W3C//DTD SVG 20010904//EN"
 "http://www.w3.org/TR/2001/REC-SVG-20010904/DTD/svg10.dtd">
<svg version="1.0" xmlns="http://www.w3.org/2000/svg"
 width="600.000000pt" height="610.000000pt" viewBox="0 0 600.000000 610.000000"
 preserveAspectRatio="xMidYMid meet">
<metadata>
Created by potrace 1.15, written by Peter Selinger 2001-2017
</metadata>
<g transform="translate(0.000000,610.000000) scale(0.100000,-0.100000)"
fill="#000000" stroke="none">
<path d="M1241 5775 c-137 -30 -153 -34 -149 -45 13 -37 905 -1579 914 -1580
6 0 61 52 123 115 176 180 186 226 82 370 -184 255 -376 573 -534 885 -65 129
-130 245 -143 258 -22 19 -36 22 -102 21 -42 0 -128 -11 -191 -24z"/>
<path d="M857 5664 c-62 -32 -113 -84 -209 -210 -151 -200 -235 -353 -288
-524 -44 -144 -60 -254 -60 -424 0 -306 62 -558 252 -1036 229 -573 417 -878
830 -1343 255 -288 499 -526 809 -789 333 -283 698 -496 1169 -682 502 -198
738 -256 1045 -256 360 0 616 91 938 334 62 46 133 105 159 130 46 46 103 145
96 166 -4 12 -1636 950 -1652 949 -6 0 -60 -59 -121 -130 -89 -105 -120 -135
-164 -156 -49 -24 -57 -26 -98 -15 -59 16 -355 182 -528 296 -180 119 -434
310 -553 416 -258 228 -575 657 -826 1116 -115 211 -107 242 100 421 l134 115
-37 67 c-21 37 -234 408 -473 824 -350 609 -439 757 -455 756 -11 0 -42 -11
-68 -25z"/>
<path d="M4333 2359 c-50 -14 -301 -249 -282 -263 24 -17 1582 -906 1589 -906
5 0 12 10 15 22 3 13 14 64 26 113 27 120 36 245 19 284 -10 26 -40 44 -214
130 -311 154 -651 355 -904 537 -58 42 -117 80 -130 85 -29 11 -77 10 -119 -2z"/>
</g>
</svg>
